HIERARCHY
ROOT joint_0
{
	OFFSET 0.000000 0.000000 0.000000
	CHANNELS 6 Xposition Yposition Zposition Zrotation Yrotation Xrotation 
	JOINT joint_1
	{
		OFFSET 6.004005 -1.946999 100.587036
		CHANNELS 3 Zrotation Yrotation Xrotation
		JOINT joint_2
		{
			OFFSET -4.601006 -0.824997 91.925903
			CHANNELS 3 Zrotation Yrotation Xrotation
			JOINT joint_3
			{
				OFFSET -5.420998 -1.130005 91.774048
				CHANNELS 3 Zrotation Yrotation Xrotation
				JOINT joint_4
				{
					OFFSET 4.308998 -3.777992 123.473999
					CHANNELS 3 Zrotation Yrotation Xrotation
					JOINT joint_5
					{
						OFFSET 25.565002 -6.305008 79.437988
						CHANNELS 3 Zrotation Yrotation Xrotation
						End Site
						{
							OFFSET 0.000000 0.000000 0.000000
						}
					}
				}
				JOINT joint_6
				{
					OFFSET -1.750000 -28.655998 68.557983
					CHANNELS 3 Zrotation Yrotation Xrotation
					JOINT joint_7
					{
						OFFSET -17.692001 -116.544006 -17.244019
						CHANNELS 3 Zrotation Yrotation Xrotation
						JOINT joint_8
						{
							OFFSET 27.063004 -23.640991 -266.895020
							CHANNELS 3 Zrotation Yrotation Xrotation
							JOINT joint_9
							{
								OFFSET 40.722000 -15.761017 -232.488953
								CHANNELS 3 Zrotation Yrotation Xrotation
								End Site
								{
									OFFSET 0.000000 0.000000 0.000000
								}
							}
						}
					}
				}
				JOINT joint_10
				{
					OFFSET 6.593002 24.457001 69.892944
					CHANNELS 3 Zrotation Yrotation Xrotation
					JOINT joint_11
					{
						OFFSET 24.311996 114.920002 -19.872925
						CHANNELS 3 Zrotation Yrotation Xrotation
						JOINT joint_12
						{
							OFFSET 21.081001 15.319000 -268.037964
							CHANNELS 3 Zrotation Yrotation Xrotation
							JOINT joint_13
							{
								OFFSET 27.794006 -8.947001 -234.744080
								CHANNELS 3 Zrotation Yrotation Xrotation
								End Site
								{
									OFFSET 0.000000 0.000000 0.000000
								}
							}
						}
					}
				}
			}
		}
	}
	JOINT joint_14
	{
		OFFSET -6.627998 -80.520004 -98.790039
		CHANNELS 3 Zrotation Yrotation Xrotation
		JOINT joint_15
		{
			OFFSET -43.638000 -13.751999 -502.538971
			CHANNELS 3 Zrotation Yrotation Xrotation
			JOINT joint_16
			{
				OFFSET -39.532999 -9.912994 -398.071007
				CHANNELS 3 Zrotation Yrotation Xrotation
				JOINT joint_17
				{
					OFFSET 174.940004 -34.660995 -75.688002
					CHANNELS 3 Zrotation Yrotation Xrotation
					End Site
					{
						OFFSET 0.000000 0.000000 0.000000
					}
				}
			}
		}
	}
	JOINT joint_18
	{
		OFFSET 12.591003 79.842003 -98.765015
		CHANNELS 3 Zrotation Yrotation Xrotation
		JOINT joint_19
		{
			OFFSET -39.080002 -1.297001 -503.101013
			CHANNELS 3 Zrotation Yrotation Xrotation
			JOINT joint_20
			{
				OFFSET -51.570000 -0.514000 -396.815987
				CHANNELS 3 Zrotation Yrotation Xrotation
				JOINT joint_21
				{
					OFFSET 178.987999 -11.521999 -73.244003
					CHANNELS 3 Zrotation Yrotation Xrotation
					End Site
					{
						OFFSET 0.000000 0.000000 0.000000
					}
				}
			}
		}
	}
}
MOTION
Frames: 12
Frame Time: 0.016667
61.350000 -152.075000 1094.913940 -0.804512 1.382624 -1.106952 -0.860005 -1.700528 0.174746 -0.860381 0.268435 -0.114454 -0.858652 -0.329892 0.040550 -0.106019 -1.112214 0.069822 0.000000 0.000000 0.000000 4.823701 -7.933527 3.790214 -0.129652 -6.111126 -1.247571 4.224563 -10.393459 26.639744 0.000000 0.000000 0.000000 0.660329 -8.243600 -1.098683 1.031412 -6.426528 -5.905288 -2.113344 -1.228935 -27.737256 0.000000 0.000000 0.000000 -3.692563 2.499876 -1.360965 -3.822985 -2.294699 1.489885 -3.723117 3.080219 -0.990251 0.000000 0.000000 0.000000 0.757888 -0.561554 6.366194 1.421597 -1.518514 -1.782580 1.117489 1.533051 0.552470 0.000000 0.000000 0.000000 
62.118000 -151.854000 1094.854000 -0.799230 1.475182 -1.123428 -0.872981 -1.716007 0.186312 -0.873640 0.271941 -0.123305 -0.871081 -0.334874 0.046360 -0.111490 -1.104717 0.088180 0.000000 0.000000 0.000000 4.811816 -7.930633 3.823383 -0.115822 -6.106962 -1.259476 4.234913 -10.346508 26.690210 0.000000 0.000000 0.000000 0.686232 -8.219906 -1.062130 1.019763 -6.409106 -5.905834 -2.115379 -1.257353 -27.754190 0.000000 0.000000 0.000000 -3.670450 2.430735 -1.381853 -3.810014 -2.257406 1.539011 -3.702685 3.026875 -0.991870 0.000000 0.000000 0.000000 0.826858 -0.646215 6.361406 1.492736 -1.473311 -1.810228 1.180904 1.639978 0.585103 0.000000 0.000000 0.000000 
63.068000 -151.618000 1094.784060 -0.794388 1.577932 -1.136353 -0.886830 -1.710916 0.201488 -0.888255 0.269159 -0.131882 -0.884691 -0.332731 0.052649 -0.113325 -1.095699 0.095676 0.000000 0.000000 0.000000 4.794671 -7.938907 3.852363 -0.099377 -6.115065 -1.277692 4.247420 -10.267748 26.756444 0.000000 0.000000 0.000000 0.704049 -8.197352 -1.028806 1.007037 -6.394936 -5.903603 -2.116648 -1.285653 -27.768548 0.000000 0.000000 0.000000 -3.626478 2.354436 -1.413112 -3.776287 -2.202628 1.584000 -3.661548 2.959380 -0.987305 0.000000 0.000000 0.000000 0.871405 -0.741088 6.377491 1.539616 -1.406165 -1.819894 1.224097 1.670451 0.604563 0.000000 0.000000 0.000000 
64.175000 -151.378010 1094.704960 -0.789473 1.692201 -1.147524 -0.902535 -1.691794 0.219307 -0.904991 0.262931 -0.139046 -0.900426 -0.326813 0.058853 -0.113282 -1.084517 0.097843 0.000000 0.000000 0.000000 4.774851 -7.956807 3.879413 -0.080709 -6.133013 -1.302835 4.262048 -10.160278 26.839451 0.000000 0.000000 0.000000 0.715866 -8.174754 -0.995449 0.993452 -6.381948 -5.899439 -2.116945 -1.315378 -27.780858 0.000000 0.000000 0.000000 -3.561871 2.270117 -1.452245 -3.722914 -2.134593 1.626589 -3.600854 2.879796 -0.976666 0.000000 0.000000 0.000000 0.898539 -0.846999 6.408581 1.569189 -1.322338 -1.816675 1.252809 1.653685 0.615071 0.000000 0.000000 0.000000 
65.528000 -151.184010 1094.602050 -0.788559 1.822331 -1.160038 -0.912905 -1.664771 0.239913 -0.916533 0.254365 -0.145306 -0.911010 -0.316861 0.063963 -0.113440 -1.072337 0.100828 0.000000 0.000000 0.000000 4.731629 -7.971708 3.907161 -0.057404 -6.153651 -1.319957 4.278739 -10.062405 26.911230 0.000000 0.000000 0.000000 0.726143 -8.153702 -0.967992 0.976318 -6.374147 -5.892702 -2.119688 -1.343495 -27.793905 0.000000 0.000000 0.000000 -3.497135 2.166388 -1.489904 -3.671107 -2.030454 1.673579 -3.539241 2.779069 -0.969781 0.000000 0.000000 0.000000 0.916948 -0.968436 6.444428 1.589931 -1.204377 -1.810162 1.273905 1.590872 0.619513 0.000000 0.000000 0.000000 
67.125000 -151.052990 1094.462040 -0.793782 1.968471 -1.175473 -0.913026 -1.631556 0.261744 -0.917772 0.246334 -0.149850 -0.911438 -0.306437 0.068526 -0.113798 -1.049120 0.106938 0.000000 0.000000 0.000000 4.653472 -7.974938 3.935356 -0.027818 -6.172440 -1.315627 4.296287 -9.998974 26.945209 0.000000 0.000000 0.000000 0.736902 -8.137669 -0.957861 0.954057 -6.378713 -5.877962 -2.127337 -1.359142 -27.806294 0.000000 0.000000 0.000000 -3.447829 2.030643 -1.521235 -3.637498 -1.865638 1.730821 -3.491038 2.648150 -0.974620 0.000000 0.000000 0.000000 0.930819 -1.113300 6.475032 1.605251 -1.030604 -1.802864 1.290396 1.474723 0.618659 0.000000 0.000000 0.000000 
68.930000 -150.964000 1094.288940 -0.803896 2.128038 -1.192614 -0.905694 -1.588464 0.285519 -0.911625 0.237104 -0.152727 -0.904666 -0.293975 0.071086 -0.114455 -1.017075 0.115974 0.000000 0.000000 0.000000 4.549969 -7.971976 3.964421 0.006848 -6.192238 -1.295980 4.314539 -9.956368 26.951612 0.000000 0.000000 0.000000 0.746181 -8.126898 -0.959465 0.927834 -6.393700 -5.857281 -2.138358 -1.364737 -27.816850 0.000000 0.000000 0.000000 -3.405892 1.868139 -1.550332 -3.613862 -1.648829 1.796359 -3.449091 2.490817 -0.987348 0.000000 0.000000 0.000000 0.937423 -1.278904 6.504309 1.612573 -0.807674 -1.792180 1.300185 1.305975 0.611698 0.000000 0.000000 0.000000 
71.227000 -150.998000 1094.099000 -0.824722 2.313836 -1.216332 -0.893317 -1.547414 0.317290 -0.900810 0.229518 -0.157425 -0.893055 -0.282922 0.075189 -0.116190 -1.005621 0.123570 0.000000 0.000000 0.000000 4.421076 -7.958823 3.992805 0.046951 -6.207794 -1.273096 4.338101 -9.935651 26.965619 0.000000 0.000000 0.000000 0.767827 -8.103134 -0.953200 0.895838 -6.397699 -5.846281 -2.152249 -1.398626 -27.837085 0.000000 0.000000 0.000000 -3.360147 1.699642 -1.566361 -3.585603 -1.419430 1.860047 -3.402297 2.322177 -1.000133 0.000000 0.000000 0.000000 0.941717 -1.442562 6.549899 1.619547 -0.582569 -1.789771 1.308829 1.120181 0.603153 0.000000 0.000000 0.000000 
74.157000 -151.190990 1093.894040 -0.861716 2.519541 -1.254966 -0.874191 -1.504669 0.366873 -0.884199 0.220120 -0.166606 -0.875219 -0.274536 0.081742 -0.119527 -1.023944 0.129187 0.000000 0.000000 0.000000 4.255795 -7.932720 4.016776 0.092787 -6.217623 -1.252223 4.370225 -9.935359 27.011104 0.000000 0.000000 0.000000 0.809563 -8.053777 -0.928592 0.857232 -6.376006 -5.855108 -2.169179 -1.489500 -27.874252 0.000000 0.000000 0.000000 -3.300288 1.554065 -1.558462 -3.539148 -1.207021 1.913211 -3.339801 2.154000 -1.005949 0.000000 0.000000 0.000000 0.946488 -1.575950 6.626941 1.630709 -0.385888 -1.799615 1.319914 0.942393 0.596075 0.000000 0.000000 0.000000 
77.612000 -151.511990 1093.667970 -0.911495 2.741425 -1.306450 -0.848456 -1.459299 0.431136 -0.861722 0.210547 -0.178731 -0.851299 -0.269172 0.089249 -0.123970 -1.059247 0.134207 0.000000 0.000000 0.000000 4.054902 -7.894909 4.038639 0.144305 -6.222807 -1.230756 4.409669 -9.955227 27.076369 0.000000 0.000000 0.000000 0.868907 -7.985250 -0.893304 0.812606 -6.336470 -5.877689 -2.189495 -1.621262 -27.922958 0.000000 0.000000 0.000000 -3.230940 1.422563 -1.530941 -3.480400 -0.997346 1.959421 -3.266340 1.983104 -1.007486 0.000000 0.000000 0.000000 0.949473 -1.689236 6.728764 1.642808 -0.199539 -1.817854 1.330921 0.760710 0.588675 0.000000 0.000000 0.000000 
81.803000 -152.037000 1093.448000 -0.980992 3.036001 -1.351880 -0.824126 -1.435733 0.491147 -0.840280 0.206023 -0.191960 -0.828427 -0.267664 0.096991 -0.131802 -1.164133 0.133510 0.000000 0.000000 0.000000 3.870686 -7.847242 4.067533 0.200989 -6.216361 -1.214323 4.453872 -10.003847 27.149232 0.000000 0.000000 0.000000 0.939817 -7.901278 -0.832093 0.762807 -6.279410 -5.912457 -2.210322 -1.790911 -27.985344 0.000000 0.000000 0.000000 -3.162363 1.244841 -1.499406 -3.424085 -0.771686 2.010456 -3.193902 1.796416 -1.012444 0.000000 0.000000 0.000000 0.957736 -1.827567 6.841043 1.662875 -0.029614 -1.860728 1.346572 0.569954 0.582519 0.000000 0.000000 0.000000 
86.839000 -152.823000 1093.258060 -1.078508 3.444266 -1.380052 -0.805256 -1.458970 0.532071 -0.823158 0.212859 -0.207404 -0.809865 -0.278662 0.107162 -0.145805 -1.372800 0.127770 0.000000 0.000000 0.000000 3.737769 -7.785886 4.108945 0.261185 -6.188156 -1.208327 4.501535 -10.095730 27.229783 0.000000 0.000000 0.000000 1.022041 -7.798204 -0.726539 0.708582 -6.196516 -5.964314 -2.229342 -2.009856 -28.066071 0.000000 0.000000 0.000000 -3.103342 0.978834 -1.475569 -3.382740 -0.524545 2.082841 -3.132500 1.583934 -1.027062 0.000000 0.000000 0.000000 0.975769 -2.006679 6.972298 1.699770 0.080863 -1.975823 1.369226 0.382644 0.579350 0.000000 0.000000 0.000000 
